<?xml version="1.0" encoding="utf-8"?>
<!-- Svg Vector Icons : http://www.onlinewebfonts.com/icon -->
<!DOCTYPE svg PUBLIC "-//W3C//DTD SVG 1.1//EN" "http://www.w3.org/Graphics/SVG/1.1/DTD/svg11.dtd">
<svg version="1.1" xmlns="http://www.w3.org/2000/svg" xmlns:xlink="http://www.w3.org/1999/xlink" x="0px" y="0px" viewBox="0 0 1000 1000" enable-background="new 0 0 1000 1000" xml:space="preserve">
<metadata> Svg Vector Icons : http://www.onlinewebfonts.com/icon </metadata>
<g><path d="M500,101.9c-104.1,0-208.3,42.9-281.8,116.4S101.9,395.9,101.9,500s42.9,208.3,116.4,281.8S395.9,898.1,500,898.1s208.3-42.9,281.8-116.4S898.1,604.1,898.1,500s-42.9-208.3-116.4-281.8S610.3,101.9,500,101.9z M500,10L500,10c269.5,0,490,220.5,490,490S769.5,990,500,990S10,769.5,10,500S230.5,10,500,10z M726.6,291.8L451,567.4L328.5,438.8l-91.9,91.9l220.5,220.5l361.4-361.4L726.6,291.8z"/></g>
</svg>